<?xml version="1.0" encoding="iso-8859-1"?>
<!-- Generator: Adobe Illustrator 15.0.2, SVG Export Plug-In . SVG Version: 6.00 Build 0)  -->
<!DOCTYPE svg PUBLIC "-//W3C//DTD SVG 1.1//EN" "http://www.w3.org/Graphics/SVG/1.1/DTD/svg11.dtd">
<svg version="1.1" id="Layer_1" xmlns="http://www.w3.org/2000/svg" xmlns:xlink="http://www.w3.org/1999/xlink" x="0px" y="0px"
	 width="1344px" height="2048px" viewBox="0 0 1344 2048" style="enable-background:new 0 0 1344 2048;" xml:space="preserve">
<path d="M522,1635c62-123,107-250,113-384c8-51-23-51-26-14c-87,331-553,241-536-73c14-253,267-309,399-225c50,31,47,11,19-20
	c-196-219-75-500,189-505c286,16,359,320,185,497c-23,19-70,90,0,39c180-124,424,11,418,205c-8,357-443,385-539,84c-8-31-34-47-25,9
	c11,101,39,255,115,387H522z"/>
</svg>
