<?xml version="1.0" encoding="iso-8859-1"?>
<!-- Generator: Adobe Illustrator 15.0.2, SVG Export Plug-In . SVG Version: 6.00 Build 0)  -->
<!DOCTYPE svg PUBLIC "-//W3C//DTD SVG 1.1//EN" "http://www.w3.org/Graphics/SVG/1.1/DTD/svg11.dtd">
<svg version="1.1" id="Layer_1" xmlns="http://www.w3.org/2000/svg" xmlns:xlink="http://www.w3.org/1999/xlink" x="0px" y="0px"
	 width="1216px" height="2048px" viewBox="0 0 1216 2048" style="enable-background:new 0 0 1216 2048;" xml:space="preserve">
<path d="M330,404c160-10,243,126,259,234c10,17,16,12,19-1c8-138,132-251,246-236c186,3,299,210,268,355c-46,215-155,344-242,477
	c-99,137-232,336-275,431c0,0-135-205-311-447C176,1055,84,879,73,728C63,586,134,431,330,404L330,404z"/>
</svg>
