<?xml version="1.0" encoding="iso-8859-1"?>
<!-- Generator: Adobe Illustrator 15.0.2, SVG Export Plug-In . SVG Version: 6.00 Build 0)  -->
<!DOCTYPE svg PUBLIC "-//W3C//DTD SVG 1.1//EN" "http://www.w3.org/Graphics/SVG/1.1/DTD/svg11.dtd">
<svg version="1.1" id="Layer_1" xmlns="http://www.w3.org/2000/svg" xmlns:xlink="http://www.w3.org/1999/xlink" x="0px" y="0px"
	 width="1088px" height="2048px" viewBox="0 0 1088 2048" style="enable-background:new 0 0 1088 2048;" xml:space="preserve">
<path d="M493,1252c0-39-34-39-31-11c-3,146-128,219-220,203c-140-28-184-166-182-247c3-253,258-438,487-760c167,291,443,520,459,744
	c24,300-357,411-412,63c-2-23-31-37-28,0c7,94-6,136,104,369H388C451,1504,488,1369,493,1252z"/>
</svg>
